<?xml version="1.0" encoding="utf-8"?>
<svg id= "Layer_1" xmlns="http://www.w3.org/2000/svg" viewBox="0 0 64 64" enable-background="new 0 0 64 64">

  <sodipodi:namedview pagecolor="#ffffff" bordercolor="#666666" borderopacity="1" objecttolerance="10" gridtolerance="10" guidetolerance="10" inkscape:pageopacity="0" inkscape:pageshadow="2" inkscape:window-width="1920" inkscape:window-height="1027" id="namedview17" showgrid="false" inkscape:zoom="4.9166667" inkscape:cx="-11.694915" inkscape:cy="40.271186" inkscape:window-x="-8" inkscape:window-y="-8" inkscape:window-maximized="1" inkscape:current-layer="g13"/>
  <defs id="defs7">
    <linearGradient id="linearGradient828" osb:paint="solid">
      <stop style="stop-color:#ff0000;stop-opacity:1;" offset="0" id="stop826"/>
    </linearGradient>
    <linearGradient id="0" gradientUnits="userSpaceOnUse" y1="47.37" x2="0" y2="-1.429">
      <stop stop-color="#c52828" id="stop2"/>
      <stop offset="1" stop-color="#ff5454" id="stop4"/>
    </linearGradient>
  </defs>
  <g transform="matrix(.99999 0 0 .99999-58.37.882)" enable-background="new" id="g13" style="fill-opacity:1">
    <circle cx="82.37" cy="23.12" r="24" fill="url(#0)" id="circle9" style="fill-opacity:1;fill:#dd3333"/>
    <path d="m87.77 23.725l5.939-5.939c.377-.372.566-.835.566-1.373 0-.54-.189-.997-.566-1.374l-2.747-2.747c-.377-.372-.835-.564-1.373-.564-.539 0-.997.186-1.374.564l-5.939 5.939-5.939-5.939c-.377-.372-.835-.564-1.374-.564-.539 0-.997.186-1.374.564l-2.748 2.747c-.377.378-.566.835-.566 1.374 0 .54.188.997.566 1.373l5.939 5.939-5.939 5.94c-.377.372-.566.835-.566 1.373 0 .54.188.997.566 1.373l2.748 2.747c.377.378.835.564 1.374.564.539 0 .997-.186 1.374-.564l5.939-5.939 5.94 5.939c.377.378.835.564 1.374.564.539 0 .997-.186 1.373-.564l2.747-2.747c.377-.372.566-.835.566-1.373 0-.54-.188-.997-.566-1.373l-5.939-5.94" fill="#fff" fill-opacity=".842" id="path11" style="fill-opacity:1;fill:#ffffff"/>
  </g>
</svg>