<?xml version="1.0" encoding="UTF-8"?>
<svg xmlns="http://www.w3.org/2000/svg" version="1.1" viewBox="0 0 800 800">
  <defs>
    <style>
      .cls-1 {
        fill: #40b549;
        stroke: #000;
        stroke-miterlimit: 10;
        stroke-width: 20px;
      }
    </style>
  </defs>
  <!-- Generator: Adobe Illustrator 28.6.0, SVG Export Plug-In . SVG Version: 1.2.0 Build 709)  -->
  <g>
    <g id="icon">
      <path class="cls-1" d="M403,41C197.6,41,31,205.8,31,409s166.6,368,372,368,372-164.8,372-368S608.4,41,403,41ZM190.4,461.6c-29.4,0-53.1-23.5-53.1-52.6s23.8-52.6,53.1-52.6,53.1,23.5,53.1,52.6-23.8,52.6-53.1,52.6ZM403,461.6c-29.4,0-53.1-23.5-53.1-52.6s23.8-52.6,53.1-52.6,53.1,23.5,53.1,52.6-23.8,52.6-53.1,52.6ZM615.6,461.6c-29.4,0-53.1-23.5-53.1-52.6s23.8-52.6,53.1-52.6,53.1,23.5,53.1,52.6-23.8,52.6-53.1,52.6Z"/>
    </g>
  </g>
</svg>