<?xml version="1.0" encoding="UTF-8"?>
<svg id= "Layer_1" xmlns="http://www.w3.org/2000/svg" version="1.1" viewBox="-50 -50 900 900">

  <defs>
    <style>
      .cls-1 {
        fill: #40b549;
      }
    </style>
  </defs>
  <!-- Generator: Adobe Illustrator 28.6.0, SVG Export Plug-In . SVG Version: 1.2.0 Build 709)  -->
  <g>
    <g id="icon">
      <path class="cls-1" d="M400,0C179.1,0,0,179.1,0,400s179.1,400,400,400,400-179.1,400-400S620.9,0,400,0ZM171.4,457.1c-31.6,0-57.1-25.6-57.1-57.1s25.6-57.1,57.1-57.1,57.1,25.6,57.1,57.1-25.6,57.1-57.1,57.1ZM400,457.1c-31.6,0-57.1-25.6-57.1-57.1s25.6-57.1,57.1-57.1,57.1,25.6,57.1,57.1-25.6,57.1-57.1,57.1ZM628.6,457.1c-31.6,0-57.1-25.6-57.1-57.1s25.6-57.1,57.1-57.1,57.1,25.6,57.1,57.1-25.6,57.1-57.1,57.1Z"/>
    </g>
  </g>
</svg>